<svg width="24" height="25" viewBox="0 0 24 25" fill="none" xmlns="http://www.w3.org/2000/svg">
<path fill-rule="evenodd" clip-rule="evenodd" d="M21 7.18518C22.6569 7.18518 24 8.52833 24 10.1852V20.1852C24 22.1182 22.433 23.6852 20.5 23.6852H3.5C1.567 23.6852 0 22.1182 0 20.1852V2.68518C0 1.58061 0.895431 0.685181 2 0.685181H17C18.1046 0.685181 19 1.58061 19 2.68518V7.18518H21ZM2.00006 20.1852C2.00006 21.0136 2.67164 21.6852 3.50006 21.6852L16.6261 21.6842C16.7807 21.6841 16.9266 21.6126 17.0213 21.4903C17.1159 21.3681 17.1487 21.2089 17.1101 21.0592C17.0367 20.7737 16.9997 20.48 17.0001 20.1852V3.18518C17.0001 2.90904 16.7762 2.68518 16.5001 2.68518H2.50006C2.22392 2.68518 2.00006 2.90904 2.00006 3.18518V20.1852ZM21.9999 20.1852C21.9999 21.0136 21.3284 21.6852 20.4999 21.6852C19.6715 21.6852 18.9999 21.0136 18.9999 20.1852V9.68518C18.9999 9.40904 19.2238 9.18518 19.4999 9.18518H20.9999C21.5522 9.18518 21.9999 9.6329 21.9999 10.1852V20.1852ZM5.29359 4.68518C4.7183 4.68518 4.25193 5.15155 4.25193 5.72685V10.8935C4.25193 11.4688 4.7183 11.9352 5.29359 11.9352H8.96026C9.53556 11.9352 10.0019 11.4688 10.0019 10.8935V5.72685C10.0019 5.15155 9.53556 4.68518 8.96026 4.68518H5.29359ZM12.751 6.23218H14.751C15.1652 6.23218 15.501 6.56797 15.501 6.98218V7.48218C15.501 7.89639 15.1652 8.23218 14.751 8.23218H12.751C12.5524 8.23271 12.3616 8.15431 12.2208 8.01422C12.08 7.87413 12.0005 7.68383 12 7.48518V6.98518C11.9995 6.78566 12.0784 6.59412 12.2193 6.45285C12.3602 6.31158 12.5515 6.23218 12.751 6.23218ZM14.751 10.2322H12.751C12.5515 10.2322 12.3602 10.3116 12.2193 10.4529C12.0784 10.5941 11.9995 10.7857 12 10.9852V11.4852C12.0017 11.8986 12.3376 12.2327 12.751 12.2322H14.751C15.1652 12.2322 15.501 11.8964 15.501 11.4822V10.9822C15.501 10.568 15.1652 10.2322 14.751 10.2322ZM4.75094 14.2322H14.7509C15.1651 14.2322 15.5009 14.568 15.5009 14.9822V15.4822C15.5009 15.8964 15.1651 16.2322 14.7509 16.2322H4.75094C4.3375 16.2327 4.00159 15.8986 3.99994 15.4852V14.9852C3.9994 14.7857 4.07829 14.5941 4.21919 14.4528C4.36009 14.3116 4.55141 14.2322 4.75094 14.2322ZM12.2499 18.2322H4.74994C4.5505 18.2322 4.35928 18.3116 4.21854 18.4529C4.0778 18.5942 3.99914 18.7857 3.99994 18.9852V19.4852C4.00104 19.8985 4.33666 20.2327 4.74994 20.2322H12.2499C12.6641 20.2322 12.9999 19.8964 12.9999 19.4822V18.9822C12.9999 18.568 12.6641 18.2322 12.2499 18.2322Z" fill="#8D8D8C"/>
</svg>
