<svg width="24" height="25" viewBox="0 0 24 25" fill="none" xmlns="http://www.w3.org/2000/svg">
<path fill-rule="evenodd" clip-rule="evenodd" d="M0 12.1852C0 5.55776 5.37258 0.185181 12 0.185181C18.6244 0.192346 23.9928 5.56073 24 12.1852C24 18.8126 18.6274 24.1852 12 24.1852C5.37258 24.1852 0 18.8126 0 12.1852ZM13.313 3.88818C13.1302 3.96796 13.0123 4.14874 13.013 4.34818L13.008 6.93918C13.0076 7.09921 13.0838 7.24977 13.213 7.34418L16.713 9.89018C16.8682 10.0035 17.0746 10.0179 17.244 9.92718L19.178 8.89018C19.3275 8.80996 19.4262 8.65934 19.44 8.49018L19.719 5.33818C19.7314 5.19484 19.6815 5.0531 19.582 4.94918C18.6995 4.02254 17.6559 3.26419 16.502 2.71118C16.3723 2.6491 16.2222 2.64582 16.09 2.70218L13.313 3.88818ZM4.43904 4.92418C5.31957 4.00517 6.35937 3.25335 7.50804 2.70518C7.63769 2.6431 7.7878 2.63982 7.92004 2.69618L10.709 3.88518C10.8918 3.96496 11.0097 4.14574 11.009 4.34518V6.94018C11.0076 7.09862 10.9312 7.24702 10.803 7.34018L7.40304 9.81818C7.25324 9.92797 7.05492 9.94569 6.88804 9.86418L4.85904 8.87318C4.70148 8.79641 4.59563 8.64275 4.58004 8.46818L4.30004 5.31418C4.28784 5.17021 4.33853 5.02799 4.43904 4.92418ZM6.64108 17.9572L7.76808 16.6992C7.88473 16.5674 7.92347 16.3839 7.87008 16.2162L6.59308 12.2702C6.55301 12.1474 6.467 12.0449 6.35308 11.9842L4.25308 10.8572C4.04737 10.7465 3.79246 10.793 3.63908 10.9692L1.71408 13.1852C1.62286 13.2929 1.58145 13.4342 1.60008 13.5742C1.76618 14.828 2.15926 16.0412 2.76008 17.1542C2.82857 17.2804 2.94805 17.3711 3.08808 17.4032L6.15608 18.1102C6.33354 18.1513 6.51936 18.0927 6.64108 17.9572ZM15.7681 19.6992L14.2291 22.2762C14.1551 22.4003 14.0312 22.4863 13.8891 22.5122C12.6524 22.7372 11.3854 22.7389 10.1481 22.5172C10.0056 22.4916 9.88122 22.4055 9.80707 22.2812L8.26207 19.7032C8.14939 19.515 8.1725 19.2754 8.31907 19.1122L9.44507 17.8552C9.54012 17.7493 9.67578 17.6889 9.81807 17.6892H14.2111C14.3534 17.6889 14.489 17.7493 14.5841 17.8552L15.7091 19.1122C15.8552 19.2752 15.8783 19.5142 15.7661 19.7022L15.7681 19.6992ZM20.914 17.4002C21.054 17.3681 21.1735 17.2774 21.242 17.1512L21.24 17.1542C21.8416 16.043 22.236 14.8316 22.404 13.5792C22.423 13.437 22.38 13.2935 22.286 13.1852L20.364 10.9612C20.2107 10.7855 19.9564 10.7391 19.751 10.8492L17.651 11.9762C17.5371 12.037 17.451 12.1394 17.411 12.2622L16.134 16.2082C16.0781 16.3771 16.1162 16.5629 16.234 16.6962L17.361 17.9542C17.4827 18.0897 17.6685 18.1483 17.846 18.1072L20.914 17.4002Z" fill="#8D8D8C"/>
</svg>
